<svg xmlns="http://www.w3.org/2000/svg" xmlns:svg="http://www.w3.org/2000/svg" id="svg2" width="256" height="256" version="1.1" viewBox="0 0 256 256"><metadata id="metadata7"/><g id="layer1" transform="translate(0,-796.3622)"><flowRoot id="flowRoot4348" transform="translate(0,1004.3622)" xml:space="preserve" style="font-style:normal;font-weight:400;line-height:.01%;font-family:sans-serif;letter-spacing:0;word-spacing:0;fill:#f44336;fill-opacity:1;stroke:none;stroke-width:1px;stroke-linecap:butt;stroke-linejoin:miter;stroke-opacity:1"><flowRegion id="flowRegion4350"><rect id="rect4352" width="24" height="44.75" x="12" y="2.625" style="fill:#f44336;fill-opacity:1"/></flowRegion><flowPara id="flowPara4354" style="font-size:40px;line-height:1.25">!</flowPara></flowRoot><path style="fill:none;stroke:#d32f2f;stroke-width:9.75045013;stroke-linecap:round;stroke-linejoin:miter;stroke-miterlimit:4;stroke-dasharray:none;stroke-opacity:1" id="path845" d="M 36.375052,843.1122 H 219.62495 v 0"/><path style="fill:#d32f2f;fill-opacity:1;stroke:none;stroke-width:10.07606792;stroke-linecap:butt;stroke-linejoin:round;stroke-miterlimit:4;stroke-dasharray:none;stroke-opacity:1" id="rect881" d="m 53,859.3622 v 21.6875 24.4375 92.1875 c 0,12.0153 9.672176,21.6875 21.6875,21.6875 h 106.625 c 12.01532,0 21.6875,-9.6722 21.6875,-21.6875 V 905.4872 881.0497 859.3622 H 181.3125 74.6875 Z m 41.523438,29.58789 c 4.700845,0 8.486332,4.06374 8.486332,9.11133 v 87.31445 c 0,5.0476 -3.785487,9.11133 -8.486332,9.11133 -4.700846,0 -8.484375,-4.06373 -8.484376,-9.11133 v -87.31445 c 0,-5.04759 3.78353,-9.11133 8.484376,-9.11133 z M 158,889.59267 c 4.70085,0 8.48438,4.06373 8.48438,9.11133 v 87.3164 c 0,5.0476 -3.78353,9.11133 -8.48438,9.11133 -4.70085,0 -8.48438,-4.06373 -8.48438,-9.11133 V 898.704 c 0,-5.0476 3.78353,-9.11133 8.48438,-9.11133 z"/><rect style="fill:#d32f2f;fill-opacity:1;stroke:none;stroke-width:16.16783905;stroke-linecap:butt;stroke-linejoin:round;stroke-miterlimit:4;stroke-dasharray:none;stroke-opacity:1" id="rect964" width="39.355" height="21.25" x="108.322" y="821.237" ry="6"/></g></svg>